<?xml version="1.0" standalone="no"?>
<!DOCTYPE svg PUBLIC "-//W3C//DTD SVG 1.1//EN" "http://www.w3.org/Graphics/SVG/1.1/DTD/svg11.dtd" >
<svg xmlns="http://www.w3.org/2000/svg">
<metadata></metadata>
<defs>
<font id="politicaregular" horiz-adv-x="763" >
<font-face units-per-em="2048" ascent="1638" descent="-410" />
<missing-glyph horiz-adv-x="327" />
<glyph unicode="&#xfb01;" horiz-adv-x="868" d="M10 1047v100h164v223q0 79 76 138t162 59v-103q-39 0 -87.5 -30.5t-48.5 -63.5v-223h426v-971q0 -30 46.5 -62t89.5 -32v-102q-86 0 -162 58.5t-76 137.5v871h-324v-1168q0 -79 -75.5 -137.5t-161.5 -58.5v102q39 0 87 30.5t48 63.5v1168h-164zM600 1350v217h102v-217 h-102z" />
<glyph unicode="&#xfb02;" horiz-adv-x="868" d="M10 1047h164v-1168q0 -33 -48 -63.5t-87 -30.5v-102q86 0 161.5 58.5t75.5 137.5v1168h220v100h-220v223q0 33 48.5 63.5t87.5 30.5h188v-1288q0 -79 76 -137.5t162 -58.5v102q-43 0 -89.5 32t-46.5 62v1391h-290q-86 0 -162 -59t-76 -138v-223h-164v-100z" />
<glyph horiz-adv-x="0" />
<glyph horiz-adv-x="682" />
<glyph unicode="&#xd;" horiz-adv-x="1024" />
<glyph unicode=" "  horiz-adv-x="327" />
<glyph unicode="&#x09;" horiz-adv-x="327" />
<glyph unicode="&#xa0;" horiz-adv-x="327" />
<glyph unicode="!" horiz-adv-x="557" d="M225 0v217h103v-217h-103zM225 422v1208h103v-1208h-103z" />
<glyph unicode="&#x22;" horiz-adv-x="573" d="M133 1036h103v529h-103v-529zM338 1036h102v529h-102v-529z" />
<glyph unicode="#" horiz-adv-x="1200" d="M133 563h143l-112 -358h102l113 358h287l-113 -358h102l113 358h266v101h-235l86 272h221v100h-188l106 336h-102l-107 -336h-287l107 336h-103l-106 -336h-221v-100h190l-86 -272h-176v-101zM410 664l86 272h288l-86 -272h-288z" />
<glyph unicode="$" horiz-adv-x="753" d="M82 477v182h102v-182q0 -63 40.5 -111t101.5 -57v475q-15 8 -33.5 19.5t-59.5 43t-71.5 63.5t-55 78.5t-24.5 90.5v41q0 106 70 183t174 88v186h102v-186q103 -11 173.5 -88.5t70.5 -182.5v-41h-103v41q0 63 -40.5 110t-100.5 58v-442q21 -13 42 -27t60.5 -46.5t68 -64.5 t51 -76t22.5 -85v-70q0 -105 -70.5 -182t-173.5 -88v-207h-102v207q-104 11 -174 87.5t-70 182.5zM184 1079q0 -70 142 -168v377q-62 -11 -102 -58t-40 -110v-41zM428 309q60 9 100.5 57t40.5 111v70q0 64 -141 170v-408z" />
<glyph unicode="%" horiz-adv-x="1382" d="M123 1016q0 -113 67.5 -193t163.5 -80h21q96 0 163.5 80t67.5 193v305q0 114 -67 193t-164 79h-21q-97 0 -164 -79t-67 -193v-305zM225 1016v305q0 71 37.5 120.5t91.5 49.5h21q54 0 91.5 -49.5t37.5 -120.5v-305q0 -71 -37.5 -120.5t-91.5 -49.5h-21q-54 0 -91.5 49.5 t-37.5 120.5zM389 0l516 1634h103l-516 -1634h-103zM776 252q0 -113 67.5 -192.5t164.5 -79.5h20q97 0 164.5 79.5t67.5 192.5v305q0 114 -67.5 193t-164.5 79h-20q-97 0 -164.5 -79t-67.5 -193v-305zM879 252v305q0 71 37.5 120.5t91.5 49.5h20q54 0 91.5 -49.5 t37.5 -120.5v-305q0 -71 -37.5 -120.5t-91.5 -49.5h-20q-54 0 -91.5 49.5t-37.5 120.5z" />
<glyph unicode="&#x26;" horiz-adv-x="1052" d="M102 236v305q0 79 48.5 148t123.5 97q-70 31 -113.5 97t-43.5 145v295q0 120 75 184t201 64h33q125 0 194.5 -63.5t69.5 -184.5v-162h-102v162q0 77 -40 111t-122 34h-33q-174 0 -174 -145v-295q0 -52 55 -121t103 -69h131v-103h-131q-48 0 -110 -71.5t-62 -122.5v-305 q0 -75 51 -109.5t137 -34.5h33q82 0 122 33.5t40 110.5v673h102v-73h260v-103h-260v-497q0 -121 -69.5 -183.5t-194.5 -62.5h-35q-128 0 -208.5 63.5t-80.5 182.5z" />
<glyph unicode="'" horiz-adv-x="368" d="M133 1036h103v529h-103v-529z" />
<glyph unicode="(" horiz-adv-x="604" d="M82 778q0 -539 321 -946h119q-164 205 -254 445t-90 501t90.5 502t253.5 444h-119q-321 -404 -321 -946z" />
<glyph unicode=")" horiz-adv-x="604" d="M82 -168q164 205 254 445t90 501t-90.5 502t-253.5 444h119q321 -404 321 -946q0 -539 -321 -946h-119z" />
<glyph unicode="*" horiz-adv-x="892" d="M123 1282v96l272 -65v274h103v-274l272 65v-96l-252 -70l219 -217l-73 -63l-218 217l-217 -217l-73 63l219 217z" />
<glyph unicode="+" horiz-adv-x="880" d="M82 670v100h307v285h100v-285h310v-100h-310v-332h-100v332h-307z" />
<glyph unicode="," horiz-adv-x="421" d="M176 317h103v-636h-103v636z" />
<glyph unicode="-" horiz-adv-x="614" d="M82 670v100h450v-100h-450z" />
<glyph unicode="." horiz-adv-x="325" d="M102 59q0 -25 17.5 -42t42.5 -17t43 17t18 42t-18 43.5t-43 18.5t-42.5 -18.5t-17.5 -43.5z" />
<glyph unicode="/" horiz-adv-x="655" d="M-20 -123l593 1884h103l-594 -1884h-102z" />
<glyph unicode="0" horiz-adv-x="815" d="M113 252v1063q0 114 79 193t193 79h45q114 0 193 -79t79 -193v-1063q0 -113 -79 -192.5t-193 -79.5h-45q-114 0 -193 79.5t-79 192.5zM215 252q0 -70 49.5 -120t120.5 -50h45q70 0 120 50t50 120v1063q0 71 -50 120.5t-120 49.5h-45q-71 0 -120.5 -49.5t-49.5 -120.5 v-1063z" />
<glyph unicode="1" horiz-adv-x="448" d="M133 1464v103h182v-1567h-102v1464h-80z" />
<glyph unicode="2" horiz-adv-x="714" d="M61 0h623v102h-520q0 136 18.5 213t60 133t138.5 146q69 63 118.5 121.5t94 134t67.5 166t23 194.5v84q0 123 -86 209t-209 86h-33q-123 0 -209 -86t-86 -209h103q0 80 56.5 136.5t135.5 56.5h33q79 0 136 -56.5t57 -136.5v-84q0 -78 -14 -145.5t-36.5 -119t-61 -104 t-76 -92t-93.5 -90.5q-96 -88 -144 -156.5t-72 -162.5t-24 -238v-102z" />
<glyph unicode="3" horiz-adv-x="800" d="M86 1296v41q0 121 69.5 183.5t194.5 62.5h35q128 0 208.5 -63.5t80.5 -182.5v-237q0 -78 -44 -144.5t-114 -97.5q75 -28 123.5 -97t48.5 -149v-376q0 -119 -80.5 -182.5t-208.5 -63.5h-34q-125 0 -195 62.5t-70 183.5v342h103v-342q0 -77 40 -110.5t122 -33.5h32 q86 0 137.5 34.5t51.5 109.5v376q0 51 -62 123t-110 72h-90v102h90q48 0 102.5 69.5t54.5 121.5v237q0 75 -51 109.5t-137 34.5h-33q-82 0 -122 -33.5t-40 -110.5v-41h-102z" />
<glyph unicode="4" horiz-adv-x="845" d="M0 315h575v-327h103v327h106v103h-106v1149h-178zM154 418l401 1046h20v-1046h-421z" />
<glyph unicode="5" horiz-adv-x="751" d="M80 236q0 -121 69.5 -183.5t194.5 -62.5h35q128 0 208.5 63.5t80.5 182.5v401q0 114 -79.5 193t-193.5 79h-168v555h443v101h-545v-758h270q71 0 120.5 -49.5t49.5 -120.5v-401q0 -75 -51 -109.5t-137 -34.5h-33q-82 0 -122 33.5t-40 110.5v342h-102v-342z" />
<glyph unicode="6" horiz-adv-x="804" d="M113 254v1089q0 121 71 183.5t197 62.5h45q126 0 199 -63t73 -183v-182h-102v182q0 77 -43.5 110.5t-126.5 33.5h-45q-83 0 -124.5 -33.5t-41.5 -110.5v-516q8 7 22.5 17.5t59 27.5t88.5 17h45q114 0 193 -80t79 -193v-362q0 -113 -79 -192.5t-193 -79.5h-45 q-114 0 -193 79.5t-79 192.5zM215 254q0 -70 49.5 -120t120.5 -50h45q70 0 120 50t50 120v362q0 70 -50 120t-120 50h-45q-71 0 -120.5 -49t-49.5 -119v-364z" />
<glyph unicode="7" horiz-adv-x="624" d="M0 1475v102h594l-430 -1577h-103l404 1475h-465z" />
<glyph unicode="8" horiz-adv-x="798" d="M102 254v356q0 84 48 151t124 95q-71 32 -114 95.5t-43 146.5v217q0 113 79 192.5t193 79.5h21q114 0 193 -79.5t79 -192.5v-217q0 -82 -43.5 -146t-114.5 -96q76 -28 124 -95t48 -151v-356q0 -113 -79 -192.5t-193 -79.5h-49q-114 0 -193.5 79.5t-79.5 192.5zM205 254 q0 -70 49.5 -120t120.5 -50h49q70 0 120 50t50 120v356q0 72 -51.5 128.5t-120.5 56.5h-45q-69 0 -120.5 -56.5t-51.5 -128.5v-356zM219 1098q0 -72 49.5 -126t118.5 -54h25q58 0 113 56t55 124v217q0 71 -50 120.5t-120 49.5h-21q-71 0 -120.5 -49.5t-49.5 -120.5v-217z " />
<glyph unicode="9" horiz-adv-x="804" d="M102 956v363q0 113 79.5 192.5t193.5 79.5h45q114 0 193 -79.5t79 -192.5v-1090q0 -120 -71 -182.5t-197 -62.5h-45q-127 0 -200 62.5t-73 182.5v183h103v-183q0 -76 43.5 -109.5t126.5 -33.5h45q83 0 124.5 33t41.5 110v516q-8 -7 -22.5 -17t-59 -27t-88.5 -17h-45 q-114 0 -193.5 79.5t-79.5 192.5zM205 956q0 -70 49.5 -120t120.5 -50h45q71 0 120.5 49t49.5 119v365q0 71 -50 120.5t-120 49.5h-45q-71 0 -120.5 -49.5t-49.5 -120.5v-363z" />
<glyph unicode=":" horiz-adv-x="325" d="M102 59q0 -25 17.5 -42t42.5 -17t43 17t18 42t-18 43.5t-43 18.5t-42.5 -18.5t-17.5 -43.5zM102 948q0 -25 17.5 -42t42.5 -17t43 17t18 42t-18 43.5t-43 18.5t-42.5 -18.5t-17.5 -43.5z" />
<glyph unicode=";" horiz-adv-x="415" d="M164 948q0 -25 17 -42t42 -17t43.5 17.5t18.5 41.5q0 25 -18.5 43.5t-43.5 18.5q-24 0 -41.5 -18.5t-17.5 -43.5zM170 317h102v-636h-102v636z" />
<glyph unicode="&#x3c;" horiz-adv-x="630" d="M61 850l402 -514l65 67l-348 447l332 430l-68 66z" />
<glyph unicode="=" horiz-adv-x="880" d="M82 481v103h717v-103h-717zM82 852v102h717v-102h-717z" />
<glyph unicode="&#x3e;" horiz-adv-x="630" d="M102 403l349 447l-332 430l67 66l383 -496l-401 -514z" />
<glyph unicode="?" horiz-adv-x="794" d="M82 1165h102v213q0 70 50 120t120 50h86q70 0 120 -50t50 -120v-231q0 -26 -8 -55t-31 -54.5t-55 -25.5q-100 0 -168.5 -67.5t-68.5 -170.5v-375h102v375q0 70 44.5 102.5t90.5 32.5q51 0 90.5 22t62 57.5t33.5 76t11 82.5v231q0 114 -79.5 193.5t-193.5 79.5h-86 q-114 0 -193 -79.5t-79 -193.5v-213zM279 0v217h102v-217h-102z" />
<glyph unicode="@" horiz-adv-x="1370" d="M82 319v529q0 123 60 226.5t163.5 163.5t226.5 60h306q186 0 318 -131.5t132 -318.5v-436q0 -100 -72 -171t-172 -71h-174v117q-7 -6 -20 -16t-50 -35.5t-71 -45t-76 -35.5t-73 -16q-82 0 -139.5 57.5t-57.5 139.5v432q0 113 79 192.5t193 79.5h45q114 0 193.5 -79.5 t79.5 -192.5v-496h63q21 0 43 5.5t48 19t42.5 43.5t16.5 72v436q0 138 -105 243t-243 105h-306q-138 0 -243 -105t-105 -243v-529q0 -138 105 -243t243 -105h220v-102h-220q-186 0 -318 131.5t-132 318.5zM485 336q0 -94 95 -94q48 0 120.5 38t121.5 76l48 37v375 q0 83 -48 126.5t-122 43.5h-45q-71 0 -120.5 -50t-49.5 -120v-432z" />
<glyph unicode="A" horiz-adv-x="862" d="M20 0h103l80 438h454l82 -438h103l-291 1581q-5 27 -31 48.5t-57 21.5h-70q-31 0 -57 -22t-31 -48zM221 541l178 981q7 26 21 26h16q7 0 12.5 -6.5t7.5 -13.5l1 -6l182 -981h-418z" />
<glyph unicode="B" horiz-adv-x="876" d="M143 0h385q101 0 173.5 72.5t72.5 173.5v364q0 84 -48 151t-124 95q70 31 114 97.5t44 144.5v295q0 101 -72.5 173t-173.5 72h-371v-1638zM246 102v703h256q30 -14 51.5 -26t52.5 -36.5t48.5 -58.5t17.5 -74v-364q0 -59 -42.5 -101.5t-103.5 -42.5h-280zM246 907v631h268 q59 0 100 -44t41 -101v-299q0 -118 -151 -187h-258z" />
<glyph unicode="C" horiz-adv-x="845" d="M113 274v1082q0 123 86 209t209 86h41q123 0 208.5 -86t85.5 -209v-258h-102v258q0 80 -56.5 136t-135.5 56h-41q-80 0 -136.5 -56.5t-56.5 -135.5v-1082q0 -79 56.5 -135.5t136.5 -56.5h41q79 0 133.5 56t54.5 136v324h4h102v-324q0 -123 -85.5 -208.5t-208.5 -85.5h-41 q-123 0 -209 85.5t-86 208.5z" />
<glyph unicode="D" horiz-adv-x="886" d="M143 0v1638h336q124 0 209.5 -80t85.5 -202v-1061q0 -123 -86 -209t-209 -86h-336zM246 102h233q79 0 136 57t57 136v1061q0 77 -56.5 128.5t-136.5 51.5h-233v-1434z" />
<glyph unicode="E" horiz-adv-x="692" d="M143 0h508v102h-405v750h350v102h-350v582h405v102h-508v-1638z" />
<glyph unicode="F" horiz-adv-x="673" d="M143 0v1638h510v-102h-407v-582h350v-102h-350v-852h-103z" />
<glyph unicode="G" horiz-adv-x="837" d="M113 274q0 -123 86 -208.5t209 -85.5h32q123 0 209 85.5t86 208.5v529h-311v-103h209v-426q0 -79 -56.5 -135.5t-136.5 -56.5h-32q-80 0 -136.5 56.5t-56.5 135.5v1082q0 79 56.5 135.5t136.5 56.5h32q80 0 136.5 -56.5t56.5 -135.5v-258h102v258q0 123 -86 209t-209 86 h-32q-123 0 -209 -86t-86 -209v-1082z" />
<glyph unicode="H" horiz-adv-x="911" d="M143 0v1638h103v-684h420v684h102v-1638h-102v854h-420v-854h-103z" />
<glyph unicode="I" horiz-adv-x="409" d="M154 0v1638h102v-1638h-102z" />
<glyph unicode="J" horiz-adv-x="796" d="M61 274v324h103v-324q0 -80 56 -136t136 -56h33q80 0 136.5 56.5t56.5 135.5v1364h102v-1364q0 -123 -86 -208.5t-209 -85.5h-33q-123 0 -209 85.5t-86 208.5z" />
<glyph unicode="K" horiz-adv-x="913" d="M143 0h101v854h153l385 -854h111l-404 895v18l404 725h-111l-385 -684h-153v684h-101v-1638z" />
<glyph unicode="L" horiz-adv-x="610" d="M104 0h506v102h-405v1536h-101v-1638z" />
<glyph unicode="M" horiz-adv-x="1257" d="M123 0h102l62 1536h41l250 -1516h102l252 1516h41l59 -1536h103l-62 1638h-221l-223 -1413l-219 1413h-224z" />
<glyph unicode="N" horiz-adv-x="993" d="M143 0v1638h226l338 -1536h41v1536h102v-1638h-221l-342 1536h-41v-1536h-103z" />
<glyph unicode="O" horiz-adv-x="856" d="M113 274v1082q0 123 86 209t209 86h41q123 0 208.5 -86t85.5 -209v-1082q0 -123 -85.5 -208.5t-208.5 -85.5h-41q-123 0 -209 85.5t-86 208.5zM215 274q0 -79 56.5 -135.5t136.5 -56.5h41q79 0 135.5 56t56.5 136v1082q0 80 -56.5 136t-135.5 56h-41q-80 0 -136.5 -56.5 t-56.5 -135.5v-1082z" />
<glyph unicode="P" horiz-adv-x="827" d="M143 0v1638h328q124 0 209.5 -80t85.5 -202v-361q0 -123 -86 -209t-209 -86h-225v-700h-103zM246 803h225q80 0 136.5 56.5t56.5 135.5v361q0 77 -56.5 128.5t-136.5 51.5h-225v-733z" />
<glyph unicode="Q" horiz-adv-x="856" d="M113 274v1082q0 123 86 209t209 86h41q123 0 208.5 -86t85.5 -209v-1082q0 -115 -75.5 -197.5t-188.5 -94.5v-289h-102v289q-113 12 -188.5 94.5t-75.5 197.5zM215 274q0 -72 46.5 -125.5t115.5 -64.5v190h102v-190q69 11 115.5 64.5t46.5 125.5v1082q0 80 -56.5 136 t-135.5 56h-41q-80 0 -136.5 -56.5t-56.5 -135.5v-1082z" />
<glyph unicode="R" horiz-adv-x="856" d="M143 0v1638h371q101 0 173.5 -72t72.5 -173v-295q0 -78 -44 -144.5t-114 -97.5q76 -28 124 -95t48 -151v-610h-102v610q0 40 -17.5 74t-48.5 58.5t-52.5 36.5t-51.5 26h-256v-805h-103zM246 907h258q151 69 151 187v299q0 57 -41 101t-100 44h-268v-631z" />
<glyph unicode="S" horiz-adv-x="806" d="M92 274q0 -123 86 -208.5t209 -85.5h33q123 0 209 85.5t86 208.5v158q0 97 -18 173t-54.5 132t-80.5 96t-107 78q-47 29 -81.5 53t-70.5 56.5t-58 64t-36 72.5t-14 86v113q0 80 56.5 136t135.5 56h33q80 0 136 -56t56 -136h103q0 123 -86 209t-209 86h-33 q-123 0 -209 -86t-86 -209v-113q0 -127 52.5 -212t162.5 -152q57 -33 95.5 -60t81.5 -67.5t68.5 -83.5t42.5 -104t17 -132v-158q0 -80 -56 -136t-136 -56h-33q-79 0 -135.5 56t-56.5 136v304h-103v-304z" />
<glyph unicode="T" horiz-adv-x="675" d="M0 1536h287v-1536h102v1536h287v102h-676v-102z" />
<glyph unicode="U" horiz-adv-x="876" d="M123 274v1364h102v-1364q0 -79 56.5 -135.5t136.5 -56.5h41q79 0 135.5 56t56.5 136v1364h103v-1364q0 -123 -86 -208.5t-209 -85.5h-41q-123 0 -209 85.5t-86 208.5z" />
<glyph unicode="V" horiz-adv-x="868" d="M20 1638l293 -1589q5 -27 30.5 -48t57.5 -21h70q31 0 57 21.5t31 47.5l289 1589h-103l-280 -1529q-7 -27 -21 -27h-16q-7 0 -12 7t-6 13l-2 7l-285 1529h-103z" />
<glyph unicode="W" horiz-adv-x="1470" d="M123 274q0 -123 86 -208.5t209 -85.5h33q102 0 179.5 60t104.5 155q27 -95 105 -155t180 -60h33q123 0 209 85.5t86 208.5v1364h-103v-1364q0 -80 -56.5 -136t-135.5 -56h-33q-64 0 -120 52.5t-85 119.5t-29 123v1261h-102v-1261q0 -56 -28.5 -123t-84.5 -119.5 t-120 -52.5h-33q-80 0 -136.5 56.5t-56.5 135.5v1364h-102v-1364z" />
<glyph unicode="X" horiz-adv-x="819" d="M41 0l315 932l-237 706h104l187 -591l188 591h104l-241 -706l317 -932h-104l-264 817l-265 -817h-104z" />
<glyph unicode="Y" horiz-adv-x="868" d="M20 1638l293 -1118q3 -23 22.5 -42t47.5 -25v-453h102v451q27 6 48 26.5t26 42.5l289 1118h-103l-280 -1058q-7 -27 -21 -27h-16q-7 0 -12 6.5t-6 13.5l-2 7l-285 1058h-103z" />
<glyph unicode="Z" horiz-adv-x="737" d="M31 0l534 1536h-534v102h676l-533 -1536h533v-102h-676z" />
<glyph unicode="[" horiz-adv-x="575" d="M123 -143h452v102h-350v1720h350v103h-452v-1925z" />
<glyph unicode="\" horiz-adv-x="530" d="M0 1638h100l430 -1638h-102z" />
<glyph unicode="]" horiz-adv-x="575" d="M0 -41h350v1720h-350v103h453v-1925h-453v102z" />
<glyph unicode="^" horiz-adv-x="634" d="M63 1305l254 303h19l254 -303h-103l-157 200h-6l-158 -200h-103z" />
<glyph unicode="_" horiz-adv-x="716" d="M0 -49h717v-101h-717v101z" />
<glyph unicode="`" horiz-adv-x="612" d="M61 1567l207 -269h117l-207 269h-117z" />
<glyph unicode="a" d="M61 176v141q0 104 56 183t147 114l285 91v190q0 79 -45.5 124.5t-124.5 45.5q-78 0 -124 -48t-46 -122v-41h-103v41q0 121 78.5 196.5t194.5 75.5t194 -75.5t78 -196.5v-895h-102v127q-7 -6 -20 -16t-50.5 -35t-71.5 -44.5t-76 -35.5t-73 -16q-82 0 -139.5 57t-57.5 139z M164 176q0 -35 29.5 -64.5t64.5 -29.5q48 0 121 42.5t121 85.5l49 42v346l-242 -76q-70 -27 -106.5 -81.5t-36.5 -123.5v-141z" />
<glyph unicode="b" horiz-adv-x="825" d="M123 252v1315h102v-547q7 6 20 16t50.5 35t71.5 44.5t76 35.5t73 16q82 0 139.5 -57t57.5 -139v-719q0 -113 -79.5 -192.5t-193.5 -79.5h-45q-114 0 -193 79.5t-79 192.5zM225 252q0 -70 49.5 -120t120.5 -50h45q70 0 120 50t50 120v719q0 41 -28.5 67.5t-65.5 26.5 q-48 0 -121 -42t-121 -84l-49 -42v-645z" />
<glyph unicode="c" horiz-adv-x="743" d="M102 252v643q0 114 79.5 193t193.5 79h45q114 0 193 -79t79 -193v-154h-102v154q0 71 -50 120.5t-120 49.5h-45q-71 0 -120.5 -49.5t-49.5 -120.5v-643q0 -70 49.5 -120t120.5 -50h45q70 0 120 50t50 120v147h102v-147q0 -113 -79 -192.5t-193 -79.5h-45 q-114 0 -193.5 79.5t-79.5 192.5z" />
<glyph unicode="d" horiz-adv-x="825" d="M113 176v721q0 113 79 192.5t193 79.5h45q100 0 170 -59v455h102v-1565h-102v127q-7 -6 -20 -16t-50.5 -35t-71.5 -44.5t-76 -35.5t-73 -16q-82 0 -139 57t-57 139zM215 176q0 -41 28.5 -67.5t65.5 -26.5q48 0 121 42.5t122 85.5l48 42v655q0 66 -50.5 113t-119.5 47h-45 q-71 0 -120.5 -49.5t-49.5 -120.5v-721z" />
<glyph unicode="e" d="M102 252v643q0 114 79.5 193t193.5 79h45q114 0 193 -79t79 -193v-264h-487v-379q0 -70 49.5 -120t120.5 -50h45q70 0 120 50t50 120v147h102v-147q0 -114 -79 -193t-193 -79h-45q-114 0 -193.5 79t-79.5 193zM205 731h385v164q0 71 -50 120.5t-120 49.5h-45 q-71 0 -120.5 -49.5t-49.5 -120.5v-164z" />
<glyph unicode="f" horiz-adv-x="495" d="M10 1055v100h164v215q0 79 76 138t162 59v-103q-39 0 -87.5 -30.5t-48.5 -63.5v-215h220v-100h-220v-1176q0 -79 -75.5 -137.5t-161.5 -58.5v102q39 0 87 30.5t48 63.5v1176h-164z" />
<glyph unicode="g" horiz-adv-x="794" d="M102 289v608q0 113 79.5 192.5t193.5 79.5h45q114 0 193 -79.5t79 -192.5v-967q0 -114 -78 -191t-192 -77h-45q-114 0 -193.5 79t-79.5 193v46h103v-46q0 -70 49.5 -120t120.5 -50h45q70 0 120 50t50 120v314q-7 -6 -20.5 -16.5t-51 -37.5t-72 -47.5t-76.5 -37.5t-73 -17 q-82 0 -139.5 57.5t-57.5 139.5zM205 289q0 -41 28.5 -67.5t65.5 -26.5q48 0 121 42.5t122 84.5l48 43v532q0 71 -50 120.5t-120 49.5h-45q-71 0 -120.5 -49.5t-49.5 -120.5v-608z" />
<glyph unicode="h" horiz-adv-x="825" d="M123 0v1567h102v-547q7 6 20 16t50.5 35t71.5 44.5t76 35.5t73 16q82 0 139.5 -57t57.5 -139v-971h-103v971q0 41 -28.5 67.5t-65.5 26.5q-48 0 -121 -42t-121 -84l-49 -42v-897h-102z" />
<glyph unicode="i" horiz-adv-x="401" d="M133 176v971h103v-971q0 -31 46 -62.5t89 -31.5v-102q-86 0 -162 58.5t-76 137.5zM133 1350v217h103v-217h-103z" />
<glyph unicode="j" horiz-adv-x="372" d="M0 -215q39 0 87 30.5t48 63.5v1268h103v-1268q0 -79 -76 -137.5t-162 -58.5v102zM137 1350v217h103v-217h-103z" />
<glyph unicode="k" horiz-adv-x="718" d="M123 0h100v567h51l385 -567h111l-403 608v19l301 520h-111l-283 -479h-51v899h-100v-1567z" />
<glyph unicode="l" horiz-adv-x="401" d="M133 176v1389h103v-1389q0 -31 46 -62.5t89 -31.5v-102q-86 0 -162 58.5t-76 137.5z" />
<glyph unicode="m" horiz-adv-x="1394" d="M123 0v1147h102v-127q9 6 24.5 16t60 35t84 44.5t86 35.5t77.5 16q68 0 120.5 -41.5t70.5 -105.5h6q9 6 24.5 16t60 35t84 44.5t85.5 35.5t77 16q82 0 139.5 -57t57.5 -139v-971h-102v971q0 41 -29 67.5t-66 26.5q-48 0 -131 -42t-142 -84l-58 -42v-897h-103v971 q0 41 -28.5 67.5t-65.5 26.5q-48 0 -131 -42t-142 -84l-59 -42v-897h-102z" />
<glyph unicode="n" horiz-adv-x="825" d="M123 0v1147h102v-127q7 6 20 16t50.5 35t71.5 44.5t76 35.5t73 16q82 0 139.5 -57t57.5 -139v-971h-103v971q0 41 -28.5 67.5t-65.5 26.5q-48 0 -121 -42t-121 -84l-49 -42v-897h-102z" />
<glyph unicode="o" horiz-adv-x="794" d="M102 252v643q0 114 79.5 193t193.5 79h45q114 0 193 -79t79 -193v-643q0 -113 -79 -192.5t-193 -79.5h-45q-114 0 -193.5 79.5t-79.5 192.5zM205 252q0 -70 49.5 -120t120.5 -50h45q70 0 120 50t50 120v643q0 71 -50 120.5t-120 49.5h-45q-71 0 -120.5 -49.5 t-49.5 -120.5v-643z" />
<glyph unicode="p" horiz-adv-x="815" d="M113 -319v1466h102v-127q7 6 20 16t50.5 35t71.5 44.5t76 35.5t73 16q82 0 139 -57t57 -139v-719q0 -113 -79 -192.5t-193 -79.5h-45q-98 0 -170 59v-358h-102zM215 252q0 -70 49.5 -120t120.5 -50h45q70 0 120 50t50 120v719q0 41 -28.5 67.5t-65.5 26.5q-48 0 -121 -42 t-121 -84l-49 -42v-645z" />
<glyph unicode="q" horiz-adv-x="804" d="M102 178v719q0 113 79.5 192.5t193.5 79.5h45q114 0 193 -79.5t79 -192.5v-1216h-102v448q-7 -6 -20 -16t-50.5 -35t-71.5 -44.5t-76 -35.5t-73 -16q-82 0 -139.5 57t-57.5 139zM205 178q0 -41 28.5 -67.5t65.5 -26.5q48 0 121 42.5t122 85.5l48 42v643q0 71 -50 120.5 t-120 49.5h-45q-71 0 -120.5 -49.5t-49.5 -120.5v-719z" />
<glyph unicode="r" horiz-adv-x="743" d="M123 0v1147h102v-127q7 6 20 16t50.5 35t71.5 44.5t76 35.5t73 16q82 0 139.5 -57t57.5 -139v-207h-103v207q0 41 -28.5 67.5t-65.5 26.5q-48 0 -121 -42t-121 -84l-49 -42v-897h-102z" />
<glyph unicode="s" horiz-adv-x="753" d="M82 252v182h102v-182q0 -70 50 -120t120 -50h45q71 0 120.5 50t49.5 120v70q0 42 -60.5 101t-120.5 97l-60 39q-10 5 -26.5 15t-59 41.5t-75 64t-59 80.5t-26.5 94v41q0 114 79 193t193 79h45q114 0 193.5 -79t79.5 -193v-41h-103v41q0 71 -49.5 120.5t-120.5 49.5h-45 q-70 0 -120 -49.5t-50 -120.5v-41q0 -42 59 -99t118 -93l59 -37q10 -6 27 -16t60.5 -43t77 -66.5t60.5 -82.5t27 -95v-70q0 -113 -79.5 -192.5t-193.5 -79.5h-45q-114 0 -193 79.5t-79 192.5z" />
<glyph unicode="t" horiz-adv-x="485" d="M0 1047v100h164v297h102v-297h219v-100h-219v-871q0 -31 46 -62.5t89 -31.5v-102q-86 0 -161.5 58.5t-75.5 137.5v871h-164z" />
<glyph unicode="u" horiz-adv-x="825" d="M113 176v971h102v-971q0 -41 28.5 -67.5t65.5 -26.5q48 0 121 42t122 84l48 42v897h102v-1147h-102v127q-7 -6 -20 -16t-50.5 -35t-71.5 -44.5t-76 -35.5t-73 -16q-82 0 -139 57t-57 139z" />
<glyph unicode="v" horiz-adv-x="706" d="M31 1143l200 -1094q5 -27 30.5 -48t57.5 -21h70q31 0 57 21.5t31 47.5l199 1094h-103l-190 -1034q-7 -27 -21 -27h-16q-7 0 -12 7t-6 13l-2 7l-193 1034h-102z" />
<glyph unicode="w" horiz-adv-x="1384" d="M113 274q0 -125 75.5 -209.5t196.5 -84.5h45q93 0 164.5 53.5t97.5 146.5q26 -93 97.5 -146.5t164.5 -53.5h45q121 0 197 84.5t76 209.5v873h-103v-873q0 -82 -46.5 -137t-123.5 -55h-45q-66 0 -115.5 45.5t-72.5 111.5t-23 138v770h-102v-770q0 -72 -23 -138 t-72.5 -111.5t-115.5 -45.5h-45q-77 0 -123.5 55t-46.5 137v873h-102v-873z" />
<glyph unicode="x" horiz-adv-x="694" d="M20 0h103l231 502l217 -502h103l-268 604l251 543h-102l-201 -442l-184 442h-102l235 -543z" />
<glyph unicode="y" horiz-adv-x="686" d="M20 1143h103l192 -1034q5 -27 21 -27h33l194 1059h103l-269 -1465h-102l55 304h-41q-32 0 -57.5 21t-30.5 48z" />
<glyph unicode="z" horiz-adv-x="684" d="M51 0h582v100h-481l475 953v102h-572v-102h469l-473 -951v-102z" />
<glyph unicode="{" horiz-adv-x="468" d="M41 741v156q33 0 50 1.5t39 7.5t32.5 18.5t21 35.5t14 58.5t3.5 85.5v385q0 252 186 272v-102q-84 -20 -84 -170v-385q0 -147 -38 -205t-122 -63v-33q87 -3 123.5 -59.5t36.5 -208.5v-385q0 -84 21.5 -122t62.5 -48v-103q-186 20 -186 273v385q0 50 -3.5 85.5t-14 58 t-21 35.5t-32.5 19t-38.5 7t-50.5 1z" />
<glyph unicode="|" horiz-adv-x="348" d="M123 -102v1843h102v-1843h-102z" />
<glyph unicode="}" horiz-adv-x="468" d="M82 -20v-103q186 20 186 273v385q0 50 3.5 85.5t14 58t21 35.5t32.5 19t38.5 7t50.5 1v156q-33 0 -50 1.5t-39 7.5t-32.5 18.5t-21 35.5t-14 58.5t-3.5 85.5v385q0 252 -186 272v-102q84 -20 84 -170v-385q0 -147 38 -205t122 -63v-33q-87 -3 -123.5 -59.5t-36.5 -208.5 v-385q0 -84 -21.5 -122t-62.5 -48z" />
<glyph unicode="~" horiz-adv-x="628" d="M49 1423l10 -94q51 55 117 55q46 0 138 -35.5t143 -35.5q73 0 125 65l-11 95q-54 -58 -114 -58q-46 0 -138 36t-143 36q-76 0 -127 -64z" />
<glyph unicode="&#xa1;" horiz-adv-x="557" d="M225 -322v1209h103v-1209h-103zM225 1092v217h103v-217h-103z" />
<glyph unicode="&#xa2;" horiz-adv-x="743" d="M102 473v643q0 106 70 182.5t174 87.5v181h103v-181q103 -11 173 -88t70 -182v-153h-102v153q0 63 -40.5 110t-100.5 58v-979q60 9 100.5 57t40.5 111v148h102v-148q0 -105 -70 -182t-173 -88v-203h-103v203q-104 11 -174 87.5t-70 182.5zM205 473q0 -63 40 -111t101 -57 v979q-62 -11 -101.5 -58t-39.5 -110v-643z" />
<glyph unicode="&#xa3;" horiz-adv-x="921" d="M31 0v102h286q-50 25 -79 72t-29 105v501h-178v103h178v411q0 123 86 209t209 86h33q123 0 208.5 -86t85.5 -209v-196h-102v196q0 80 -56.5 136.5t-135.5 56.5h-33q-80 0 -136.5 -56.5t-56.5 -136.5v-411h181v-103h-181v-501q0 -52 49.5 -98.5t112.5 -78.5h367v-102h-809 z" />
<glyph unicode="&#xa4;" horiz-adv-x="917" d="M72 676v102h112v74h-112v102h112v340q0 123 86 209t209 86h41q123 0 209 -86t86 -209v-258h-102v258q0 80 -56.5 136.5t-136.5 56.5h-41q-79 0 -135.5 -56.5t-56.5 -136.5v-340h350v-102h-350v-74h350v-102h-350v-402q0 -80 56.5 -136t135.5 -56h41q79 0 134 56t55 136 v324h106v-324q0 -123 -86 -208.5t-209 -85.5h-41q-123 0 -209 85.5t-86 208.5v402h-112z" />
<glyph unicode="&#xa5;" horiz-adv-x="868" d="M20 1569l293 -844q3 -23 22.5 -42.5t47.5 -25.5v-155h-289v-103h289v-73h-289v-103h289v-223h102v223h277v103h-277v73h277v103h-277v153q27 6 48 26.5t26 43.5l289 844h-103l-280 -785q-7 -26 -21 -26h-16q-7 0 -12 6.5t-6 13.5l-2 6l-285 785h-103z" />
<glyph unicode="&#xa6;" horiz-adv-x="348" d="M123 -102v798h102v-798h-102zM123 942v799h102v-799h-102z" />
<glyph unicode="&#xa7;" horiz-adv-x="753" d="M82 262v182h102v-182q0 -70 50 -120t120 -50h45q71 0 120.5 50t49.5 120v70q0 42 -60.5 101t-120.5 97l-60 39q-10 5 -26.5 15t-59 41.5t-75 64t-59 80.5t-26.5 94v41q0 82 41 144q-41 61 -41 120v41q0 114 79 193.5t193 79.5h45q114 0 193.5 -79.5t79.5 -193.5v-41h-103 v41q0 70 -49.5 120t-120.5 50h-45q-70 0 -120 -50t-50 -120v-41q0 -42 59 -99t118 -94l59 -36q10 -6 27 -16t60.5 -43t77 -66.5t60.5 -82.5t27 -95v-70q0 -67 -33 -131q33 -54 33 -104v-70q0 -113 -79.5 -192.5t-193.5 -79.5h-45q-114 0 -193 79.5t-79 192.5zM184 864 q0 -42 59 -99t118 -93l59 -37q75 -43 143 -109q6 18 6 41v70q0 42 -60.5 101t-120.5 98l-60 38q-67 36 -133 95q-11 -37 -11 -64v-41z" />
<glyph unicode="&#xa8;" horiz-adv-x="516" d="M76 1352q0 -25 17 -42.5t42 -17.5t43.5 17.5t18.5 42.5t-18.5 43t-43.5 18t-42 -18t-17 -43zM324 1352q0 -25 18 -42.5t43 -17.5t42 17.5t17 42.5t-17 43t-42 18t-43 -18t-18 -43z" />
<glyph unicode="&#xa9;" horiz-adv-x="1081" d="M123 307v529q0 137 114.5 232t280.5 95h45q166 0 280.5 -95t114.5 -232v-529q0 -137 -114.5 -232t-280.5 -95h-45q-166 0 -280.5 95t-114.5 232zM205 307q0 -100 88 -173t225 -73h45q137 0 225.5 73t88.5 173v529q0 109 -92 177t-222 68h-45q-137 0 -225 -72.5 t-88 -172.5v-529zM246 307q0 -85 79 -145t193 -60h45q114 0 193.5 60t79.5 145v111h-82v-111q0 -54 -54.5 -88.5t-136.5 -34.5h-45q-82 0 -136 34.5t-54 88.5v529q0 58 55.5 90t134.5 32h45q82 0 136.5 -34t54.5 -88v-115h82v115q0 85 -79.5 144.5t-193.5 59.5h-45 q-114 0 -193 -59.5t-79 -144.5v-529z" />
<glyph unicode="&#xaa;" horiz-adv-x="538" d="M72 676v80h395v-80h-395zM92 991v121q0 72 28 103t91 55l154 49v102q0 82 -82 82t-82 -82v-24h-82v24q0 69 48 116.5t116 47.5t115.5 -47.5t47.5 -116.5v-536h-81v61q-99 -74 -154 -74q-49 0 -84 35t-35 84zM174 991q0 -37 37 -37q24 0 62.5 20.5t64.5 41.5l27 20v199 l-142 -45q-49 -16 -49 -78v-121z" />
<glyph unicode="&#xab;" horiz-adv-x="950" d="M61 489l412 302l68 -70l-324 -232l324 -231l-68 -70zM369 489l411 302l68 -70l-324 -232l324 -231l-68 -70z" />
<glyph unicode="&#xac;" horiz-adv-x="860" d="M82 629v100h696v-371h-100v271h-596z" />
<glyph unicode="&#xad;" horiz-adv-x="614" d="M82 670v100h450v-100h-450z" />
<glyph unicode="&#xae;" horiz-adv-x="921" d="M139 850q0 -125 88 -211t215 -86h33q127 0 215 86t88 211v475q0 125 -88 211t-215 86h-33q-127 0 -215 -86t-88 -211v-475zM221 850v475q0 94 71 154.5t150 60.5h33q79 0 150 -60.5t71 -154.5v-475q0 -94 -71 -154.5t-150 -60.5h-33q-79 0 -150 60.5t-71 154.5zM330 770 h82v301h41q30 0 48.5 -15t18.5 -42v-244h82v244q0 33 -18.5 60t-48.5 38q28 12 45.5 38.5t17.5 57.5v119q0 39 -35 68.5t-76 29.5h-157v-655zM412 1153v190h41q61 0 61 -36v-99q0 -55 -61 -55h-41z" />
<glyph unicode="&#xaf;" horiz-adv-x="614" d="M82 1325v100h450v-100h-450z" />
<glyph unicode="&#xb0;" horiz-adv-x="577" d="M82 1266q0 -78 56 -134.5t134 -56.5h33q78 0 134.5 56.5t56.5 134.5v49q0 79 -56.5 134.5t-134.5 55.5h-33q-78 0 -134 -55.5t-56 -134.5v-49zM184 1266v49q0 37 25.5 62.5t62.5 25.5h33q37 0 62.5 -25.5t25.5 -62.5v-49q0 -37 -25.5 -62.5t-62.5 -25.5h-33 q-37 0 -62.5 25.5t-25.5 62.5z" />
<glyph unicode="&#xb1;" horiz-adv-x="880" d="M82 301v100h717v-100h-717zM82 793v100h307v285h100v-285h310v-100h-310v-332h-100v332h-307z" />
<glyph unicode="&#xb2;" horiz-adv-x="585" d="M123 737h340v103h-236q0 72 16 105.5t74 96.5q71 78 108.5 156t37.5 180v45q0 65 -45.5 110.5t-110.5 45.5h-18q-65 0 -110.5 -45.5t-45.5 -110.5h103q0 54 53 54h18q53 0 53 -54v-45q0 -144 -124 -274q-35 -37 -49.5 -54.5t-33 -49.5t-24.5 -69t-6 -91v-103z" />
<glyph unicode="&#xb3;" horiz-adv-x="575" d="M115 1423v25q0 53 44 91t99 38h43q55 0 99 -38t44 -91v-127q0 -42 -19.5 -77t-53.5 -50q39 -15 60.5 -50.5t21.5 -80.5v-205q0 -53 -44.5 -91t-99.5 -38h-43q-55 0 -99 38t-44 91v186h102v-176q0 -11 10.5 -24t30.5 -13h43q20 0 30.5 13t10.5 24v195q0 40 -34 65t-68 25 h-66v82h66q4 0 10 0.5t22.5 5t29 12.5t22.5 26t10 42v117q0 11 -10.5 24t-30.5 13h-43q-20 0 -30.5 -13t-10.5 -24v-15h-102z" />
<glyph unicode="&#xb4;" horiz-adv-x="612" d="M266 1298l207 269h117l-205 -269h-119z" />
<glyph unicode="&#xb5;" horiz-adv-x="1257" d="M123 0h102l62 1536h41l250 -1516h102l252 1516h41l59 -1536h103l-62 1638h-221l-223 -1413l-219 1413h-224z" />
<glyph unicode="&#xb6;" horiz-adv-x="983" d="M82 723v643q0 114 79 193t193 79h475v-1945h-102v1845h-184v-1845h-103v758h-86q-114 0 -193 79.5t-79 192.5zM184 723q0 -71 50 -120.5t120 -49.5h86v985h-86q-70 0 -120 -50.5t-50 -121.5v-643z" />
<glyph unicode="&#xb7;" horiz-adv-x="325" d="M102 592q0 -25 17.5 -42.5t42.5 -17.5t43 17.5t18 42.5t-18 43t-43 18t-42.5 -18t-17.5 -43z" />
<glyph unicode="&#xb8;" horiz-adv-x="862" d="M281 -465q98 -61 168 -61q114 0 186 68.5t72 168.5q0 82 -53 148.5t-134 85.5l25 110h-107l-35 -209h68q57 0 95 -41t38 -94q0 -57 -43.5 -96t-111.5 -39q-36 0 -97 31z" />
<glyph unicode="&#xb9;" horiz-adv-x="489" d="M154 1464v103h182v-830h-103v727h-79z" />
<glyph unicode="&#xba;" horiz-adv-x="581" d="M92 676v80h397v-80h-397zM113 1036v385q0 69 47 116.5t116 47.5h27q68 0 116 -47.5t48 -116.5v-385q0 -68 -48.5 -116t-115.5 -48h-27q-69 0 -116 48t-47 116zM195 1036q0 -41 24 -61.5t57 -20.5h27q33 0 57.5 20.5t24.5 61.5v385q0 41 -24.5 61.5t-57.5 20.5h-27 q-33 0 -57 -20.5t-24 -61.5v-385z" />
<glyph unicode="&#xbb;" horiz-adv-x="950" d="M102 258l68 -70l412 301l-412 302l-68 -70l324 -232zM410 258l67 -70l412 301l-412 302l-67 -70l323 -232z" />
<glyph unicode="&#xbc;" horiz-adv-x="1189" d="M154 1464v103h182v-830h-103v727h-79zM287 0l516 1634h102l-516 -1634h-102zM641 195h303v-195h103v195h40v102h-40v539h-181zM797 297l127 440h20v-440h-147z" />
<glyph unicode="&#xbd;" horiz-adv-x="1198" d="M154 1464v103h182v-830h-103v727h-79zM287 0l516 1634h102l-516 -1634h-102zM735 0h340v102h-235q0 72 16 106t74 97q71 77 108 155.5t37 180.5v45q0 65 -45.5 110.5t-109.5 45.5h-19q-65 0 -110.5 -46t-45.5 -110h103q0 53 53 53h19q53 0 53 -53v-45q0 -143 -125 -274 q-35 -36 -49.5 -54t-32.5 -50t-24.5 -69.5t-6.5 -91.5v-102z" />
<glyph unicode="&#xbe;" horiz-adv-x="1157" d="M115 1423v25q0 53 44 91t99 38h43q55 0 99 -38t44 -91v-127q0 -42 -19.5 -77t-53.5 -50q39 -15 60.5 -50.5t21.5 -80.5v-205q0 -53 -44.5 -91t-99.5 -38h-43q-55 0 -99 38t-44 91v186h102v-176q0 -11 10.5 -24t30.5 -13h43q20 0 30.5 13t10.5 24v195q0 40 -34 65t-68 25 h-66v82h66q4 0 10 0.5t22.5 5t29 12.5t22.5 26t10 42v117q0 11 -10.5 24t-30.5 13h-43q-20 0 -30.5 -13t-10.5 -24v-15h-102zM295 0l516 1634h102l-516 -1634h-102zM588 195h303v-195h102v195h41v102h-41v539h-180zM743 297l127 440h21v-440h-148z" />
<glyph unicode="&#xbf;" horiz-adv-x="794" d="M82 -68q0 -114 79 -193t193 -79h86q114 0 193.5 79t79.5 193v213h-103v-213q0 -70 -50 -120t-120 -50h-86q-70 0 -120 50t-50 120v232q0 26 8.5 55t31.5 54.5t55 25.5q100 0 168.5 67.5t68.5 170.5v374h-102v-374q0 -70 -44.5 -103t-90.5 -33q-98 0 -147.5 -72.5 t-49.5 -164.5v-232zM414 1094v217h102v-217h-102z" />
<glyph unicode="&#xc0;" horiz-adv-x="862" d="M20 0h103l80 438h454l82 -438h103l-291 1581q-5 27 -31 48.5t-57 21.5h-70q-31 0 -57 -22t-31 -48zM195 1976l206 -268h117l-207 268h-116zM221 541l178 981q7 26 21 26h16q7 0 12.5 -6.5t7.5 -13.5l1 -6l182 -981h-418z" />
<glyph unicode="&#xc1;" horiz-adv-x="862" d="M20 0h103l80 438h454l82 -438h103l-291 1581q-5 27 -31 48.5t-57 21.5h-70q-31 0 -57 -22t-31 -48zM221 541l178 981q7 26 21 26h16q7 0 12.5 -6.5t7.5 -13.5l1 -6l182 -981h-418zM358 1708l207 268h117l-205 -268h-119z" />
<glyph unicode="&#xc2;" horiz-adv-x="862" d="M20 0h103l80 438h454l82 -438h103l-291 1581q-5 27 -31 48.5t-57 21.5h-70q-31 0 -57 -22t-31 -48zM164 1714l254 303h18l254 -303h-102l-158 201h-6l-158 -201h-102zM221 541l178 981q7 26 21 26h16q7 0 12.5 -6.5t7.5 -13.5l1 -6l182 -981h-418z" />
<glyph unicode="&#xc3;" horiz-adv-x="862" d="M20 0h103l80 438h454l82 -438h103l-291 1581q-5 27 -31 48.5t-57 21.5h-70q-31 0 -57 -22t-31 -48zM164 1833l10 -94q51 55 117 55q46 0 137.5 -36t142.5 -36q72 0 125 66l-10 94q-53 -57 -115 -57q-46 0 -137.5 35.5t-142.5 35.5q-77 0 -127 -63zM221 541l178 981 q7 26 21 26h16q7 0 12.5 -6.5t7.5 -13.5l1 -6l182 -981h-418z" />
<glyph unicode="&#xc4;" horiz-adv-x="862" d="M20 0h103l80 438h454l82 -438h103l-291 1581q-5 27 -31 48.5t-57 21.5h-70q-31 0 -57 -22t-31 -48zM221 541l178 981q7 26 21 26h16q7 0 12.5 -6.5t7.5 -13.5l1 -6l182 -981h-418zM240 1761q0 -25 17 -42t42 -17t43 17t18 42t-18 43.5t-43 18.5q-24 0 -41.5 -18.5 t-17.5 -43.5zM487 1761q0 -24 18.5 -41.5t43.5 -17.5t42 17t17 42t-17.5 43.5t-41.5 18.5q-25 0 -43.5 -18.5t-18.5 -43.5z" />
<glyph unicode="&#xc5;" horiz-adv-x="862" d="M20 0h103l80 438h454l82 -438h103l-291 1581q-5 27 -31 48.5t-57 21.5h-70q-31 0 -57 -22t-31 -48zM221 541l178 981q7 26 21 26h16q7 0 12.5 -6.5t7.5 -13.5l1 -6l182 -981h-418zM231 1884q0 82 57.5 139.5t139.5 57.5t139.5 -57.5t57.5 -139.5t-57.5 -139t-139.5 -57 t-139.5 57t-57.5 139zM334 1884q0 -38 28 -66t66 -28t66 28t28 66t-28 66t-66 28t-66 -28t-28 -66z" />
<glyph unicode="&#xc6;" horiz-adv-x="1050" d="M20 0h103l80 438h299v-438h508v102h-406v750h350v102h-350v594h406v103h-617q-31 0 -57 -22t-31 -48zM221 541l178 981q7 26 21 26h82v-1007h-281z" />
<glyph unicode="&#xc7;" horiz-adv-x="845" d="M113 274v1082q0 123 86 209t209 86h41q123 0 208.5 -86t85.5 -209v-258h-102v258q0 80 -56.5 136t-135.5 56h-41q-80 0 -136.5 -56.5t-56.5 -135.5v-1082q0 -79 56.5 -135.5t136.5 -56.5h41q79 0 133.5 56t54.5 136v324h106v-324q0 -123 -85.5 -208.5t-208.5 -85.5h-35 l-8 -35q81 -19 133.5 -85.5t52.5 -148.5q0 -100 -72 -168.5t-186 -68.5q-70 0 -168 61l72 72q61 -31 96 -31q68 0 111.5 39t43.5 96q0 53 -38 94t-95 41h-67l24 150q-89 28 -144.5 104.5t-55.5 173.5z" />
<glyph unicode="&#xc8;" horiz-adv-x="692" d="M143 0h508v102h-405v750h350v102h-350v582h405v102h-508v-1638zM178 1976l207 -268h117l-207 268h-117z" />
<glyph unicode="&#xc9;" horiz-adv-x="692" d="M143 0h508v102h-405v750h350v102h-350v582h405v102h-508v-1638zM260 1708l207 268h117l-205 -268h-119z" />
<glyph unicode="&#xca;" horiz-adv-x="710" d="M143 1714l254 303h19l254 -303h-103l-157 201h-7l-157 -201h-103zM156 0h508v102h-406v750h350v102h-350v582h406v102h-508v-1638z" />
<glyph unicode="&#xcb;" horiz-adv-x="692" d="M143 0h508v102h-405v750h350v102h-350v582h405v102h-508v-1638zM213 1761q0 -25 17 -42t42 -17t43.5 17.5t18.5 41.5q0 25 -18.5 43.5t-43.5 18.5q-24 0 -41.5 -18.5t-17.5 -43.5zM461 1761q0 -25 18 -42t43 -17t42.5 17t17.5 42t-17.5 43.5t-42.5 18.5t-43 -18.5 t-18 -43.5z" />
<glyph unicode="&#xcc;" horiz-adv-x="425" d="M0 1976l207 -268h117l-207 268h-117zM154 0v1638h102v-1638h-102z" />
<glyph unicode="&#xcd;" horiz-adv-x="425" d="M92 1708l207 268h117l-205 -268h-119zM154 0v1638h102v-1638h-102z" />
<glyph unicode="&#xce;" horiz-adv-x="409" d="M-57 1714l254 303h18l254 -303h-102l-158 201h-6l-158 -201h-102zM154 0v1638h102v-1638h-102z" />
<glyph unicode="&#xcf;" horiz-adv-x="401" d="M16 1761q0 -25 17.5 -42t42.5 -17t43 17t18 42t-18 43.5t-43 18.5t-42.5 -18.5t-17.5 -43.5zM154 0v1638h102v-1638h-102zM264 1761q0 -24 18.5 -41.5t43.5 -17.5t42 17t17 42t-17.5 43.5t-41.5 18.5q-25 0 -43.5 -18.5t-18.5 -43.5z" />
<glyph unicode="&#xd0;" horiz-adv-x="948" d="M102 836v100h103v702h336q124 0 209.5 -80t85.5 -202v-1061q0 -123 -86 -209t-209 -86h-336v836h-103zM307 102h234q79 0 135.5 56.5t56.5 136.5v1061q0 77 -56 128.5t-136 51.5h-234v-600h197v-100h-197v-734z" />
<glyph unicode="&#xd1;" horiz-adv-x="993" d="M143 0v1638h226l338 -1536h41v1536h102v-1638h-221l-342 1536h-41v-1536h-103zM219 1833l10 -94q51 55 117 55q46 0 138 -36t143 -36q72 0 125 66l-11 94q-53 -57 -114 -57q-46 0 -138 35.5t-143 35.5q-77 0 -127 -63z" />
<glyph unicode="&#xd2;" horiz-adv-x="856" d="M113 274v1082q0 123 86 209t209 86h41q123 0 208.5 -86t85.5 -209v-1082q0 -123 -85.5 -208.5t-208.5 -85.5h-41q-123 0 -209 85.5t-86 208.5zM215 274q0 -79 56.5 -135.5t136.5 -56.5h41q79 0 135.5 56t56.5 136v1082q0 80 -56.5 136t-135.5 56h-41q-80 0 -136.5 -56.5 t-56.5 -135.5v-1082zM229 1976l207 -268h117l-207 268h-117z" />
<glyph unicode="&#xd3;" horiz-adv-x="856" d="M113 274v1082q0 123 86 209t209 86h41q123 0 208.5 -86t85.5 -209v-1082q0 -123 -85.5 -208.5t-208.5 -85.5h-41q-123 0 -209 85.5t-86 208.5zM215 274q0 -79 56.5 -135.5t136.5 -56.5h41q79 0 135.5 56t56.5 136v1082q0 80 -56.5 136t-135.5 56h-41q-80 0 -136.5 -56.5 t-56.5 -135.5v-1082zM369 1708l206 268h117l-205 -268h-118z" />
<glyph unicode="&#xd4;" horiz-adv-x="856" d="M113 274v1082q0 123 86 209t209 86h41q123 0 208.5 -86t85.5 -209v-1082q0 -123 -85.5 -208.5t-208.5 -85.5h-41q-123 0 -209 85.5t-86 208.5zM160 1714l254 303h18l254 -303h-102l-158 201h-6l-158 -201h-102zM215 274q0 -79 56.5 -135.5t136.5 -56.5h41q79 0 135.5 56 t56.5 136v1082q0 80 -56.5 136t-135.5 56h-41q-80 0 -136.5 -56.5t-56.5 -135.5v-1082z" />
<glyph unicode="&#xd5;" horiz-adv-x="856" d="M113 274v1082q0 123 86 209t209 86h41q123 0 208.5 -86t85.5 -209v-1082q0 -123 -85.5 -208.5t-208.5 -85.5h-41q-123 0 -209 85.5t-86 208.5zM158 1833l10 -94q51 55 117 55q46 0 137.5 -36t142.5 -36q72 0 125 66l-10 94q-53 -57 -115 -57q-46 0 -137.5 35.5 t-142.5 35.5q-77 0 -127 -63zM215 274q0 -79 56.5 -135.5t136.5 -56.5h41q79 0 135.5 56t56.5 136v1082q0 80 -56.5 136t-135.5 56h-41q-80 0 -136.5 -56.5t-56.5 -135.5v-1082z" />
<glyph unicode="&#xd6;" horiz-adv-x="856" d="M113 274v1082q0 123 86 209t209 86h41q123 0 208.5 -86t85.5 -209v-1082q0 -123 -85.5 -208.5t-208.5 -85.5h-41q-123 0 -209 85.5t-86 208.5zM215 274q0 -79 56.5 -135.5t136.5 -56.5h41q79 0 135.5 56t56.5 136v1082q0 80 -56.5 136t-135.5 56h-41q-80 0 -136.5 -56.5 t-56.5 -135.5v-1082zM236 1761q0 -25 17 -42t42 -17t43 17t18 42t-18 43.5t-43 18.5q-24 0 -41.5 -18.5t-17.5 -43.5zM483 1761q0 -24 18.5 -41.5t43.5 -17.5t42 17t17 42t-17.5 43.5t-41.5 18.5q-25 0 -43.5 -18.5t-18.5 -43.5z" />
<glyph unicode="&#xd7;" horiz-adv-x="937" d="M180 479l234 234l-217 219l71 69l217 -217l201 201l72 -70l-203 -202l219 -217l-69 -72l-220 219l-235 -235z" />
<glyph unicode="&#xd8;" horiz-adv-x="921" d="M113 -123l77 246q-40 67 -40 151v1082q0 123 85.5 209t208.5 86h41q90 0 170 -54l52 164h102l-78 -243q49 -74 49 -162v-1082q0 -123 -86 -208.5t-209 -85.5h-41q-104 0 -178 59l-51 -162h-102zM252 317l369 1174q-57 57 -136 57h-41q-80 0 -136 -56t-56 -136v-1039z M299 145q57 -63 145 -63h41q80 0 136.5 56.5t56.5 135.5v1072z" />
<glyph unicode="&#xd9;" horiz-adv-x="876" d="M123 274v1364h102v-1364q0 -79 56.5 -135.5t136.5 -56.5h41q79 0 135.5 56t56.5 136v1364h103v-1364q0 -123 -86 -208.5t-209 -85.5h-41q-123 0 -209 85.5t-86 208.5zM240 1976l206 -268h117l-207 268h-116z" />
<glyph unicode="&#xda;" horiz-adv-x="876" d="M123 274v1364h102v-1364q0 -79 56.5 -135.5t136.5 -56.5h41q79 0 135.5 56t56.5 136v1364h103v-1364q0 -123 -86 -208.5t-209 -85.5h-41q-123 0 -209 85.5t-86 208.5zM379 1708l207 268h116l-204 -268h-119z" />
<glyph unicode="&#xdb;" horiz-adv-x="876" d="M123 274v1364h102v-1364q0 -79 56.5 -135.5t136.5 -56.5h41q79 0 135.5 56t56.5 136v1364h103v-1364q0 -123 -86 -208.5t-209 -85.5h-41q-123 0 -209 85.5t-86 208.5zM176 1714l254 303h19l253 -303h-102l-158 201h-6l-157 -201h-103z" />
<glyph unicode="&#xdc;" horiz-adv-x="876" d="M123 274v1364h102v-1364q0 -79 56.5 -135.5t136.5 -56.5h41q79 0 135.5 56t56.5 136v1364h103v-1364q0 -123 -86 -208.5t-209 -85.5h-41q-123 0 -209 85.5t-86 208.5zM248 1761q0 -25 17 -42t42 -17t43.5 17.5t18.5 41.5q0 25 -18.5 43.5t-43.5 18.5q-24 0 -41.5 -18.5 t-17.5 -43.5zM496 1761q0 -25 18 -42t43 -17t42 17t17 42t-17.5 43.5t-41.5 18.5q-25 0 -43 -18.5t-18 -43.5z" />
<glyph unicode="&#xdd;" horiz-adv-x="868" d="M20 1638l293 -1118q3 -23 22.5 -42t47.5 -25v-453h102v451q27 6 48 26.5t26 42.5l289 1118h-103l-280 -1058q-7 -27 -21 -27h-16q-7 0 -12 6.5t-6 13.5l-2 7l-285 1058h-103zM313 1708l207 268h117l-205 -268h-119z" />
<glyph unicode="&#xde;" horiz-adv-x="827" d="M143 0v1618h103v-305h225q124 0 209.5 -80.5t85.5 -202.5v-360q0 -123 -86 -209t-209 -86h-225v-375h-103zM246 477h225q79 0 136 56.5t57 136.5v360q0 77 -56.5 128.5t-136.5 51.5h-225v-733z" />
<glyph unicode="&#xdf;" horiz-adv-x="845" d="M10 -217q39 0 87 30.5t48 63.5v1460q0 121 70 184.5t195 63.5h32q127 0 202 -64t75 -184v-237q0 -78 -44 -144.5t-114 -97.5q75 -28 123.5 -97t48.5 -149v-387q0 -119 -80 -182t-209 -63h-34v102h32q86 0 137.5 34t51.5 109v387q0 51 -62 123t-110 72h-90v102h90 q48 0 102.5 69.5t54.5 121.5v237q0 146 -174 146h-32q-82 0 -122 -34t-40 -112v-1460q0 -79 -76 -137.5t-162 -58.5v102z" />
<glyph unicode="&#xe0;" d="M61 176v141q0 104 56 183t147 114l285 91v190q0 79 -45.5 124.5t-124.5 45.5q-78 0 -124 -48t-46 -122v-41h-103v41q0 121 78.5 196.5t194.5 75.5t194 -75.5t78 -196.5v-895h-102v127q-7 -6 -20 -16t-50.5 -35t-71.5 -44.5t-76 -35.5t-73 -16q-82 0 -139.5 57t-57.5 139z M164 176q0 -35 29.5 -64.5t64.5 -29.5q48 0 121 42.5t121 85.5l49 42v346l-242 -76q-70 -27 -106.5 -81.5t-36.5 -123.5v-141zM227 1567l207 -269h117l-207 269h-117z" />
<glyph unicode="&#xe1;" d="M61 176v141q0 104 56 183t147 114l285 91v190q0 79 -45.5 124.5t-124.5 45.5q-78 0 -124 -48t-46 -122v-41h-103v41q0 121 78.5 196.5t194.5 75.5t194 -75.5t78 -196.5v-895h-102v127q-7 -6 -20 -16t-50.5 -35t-71.5 -44.5t-76 -35.5t-73 -16q-82 0 -139.5 57t-57.5 139z M164 176q0 -35 29.5 -64.5t64.5 -29.5q48 0 121 42.5t121 85.5l49 42v346l-242 -76q-70 -27 -106.5 -81.5t-36.5 -123.5v-141zM289 1298l207 269h116l-204 -269h-119z" />
<glyph unicode="&#xe2;" horiz-adv-x="765" d="M61 176v141q0 104 56 183t147 114l285 91v190q0 79 -45.5 124.5t-124.5 45.5q-78 0 -124 -48t-46 -122v-41h-103v41q0 121 78.5 196.5t194.5 75.5t194 -75.5t78 -196.5v-895h-102v127q-7 -6 -20 -16t-50.5 -35t-71.5 -44.5t-76 -35.5t-73 -16q-82 0 -139.5 57t-57.5 139z M127 1305l254 303h18l254 -303h-102l-158 200h-6l-158 -200h-102zM164 176q0 -35 29.5 -64.5t64.5 -29.5q48 0 121 42.5t121 85.5l49 42v346l-242 -76q-70 -27 -106.5 -81.5t-36.5 -123.5v-141z" />
<glyph unicode="&#xe3;" d="M61 176v141q0 104 56 183t147 114l285 91v190q0 79 -45.5 124.5t-124.5 45.5q-78 0 -124 -48t-46 -122v-41h-103v41q0 121 78.5 196.5t194.5 75.5t194 -75.5t78 -196.5v-895h-102v127q-7 -6 -20 -16t-50.5 -35t-71.5 -44.5t-76 -35.5t-73 -16q-82 0 -139.5 57t-57.5 139z M94 1423l10 -94q51 55 117 55q46 0 138 -35.5t143 -35.5q73 0 125 65l-11 95q-54 -58 -114 -58q-46 0 -138 36t-143 36q-76 0 -127 -64zM164 176q0 -35 29.5 -64.5t64.5 -29.5q48 0 121 42.5t121 85.5l49 42v346l-242 -76q-70 -27 -106.5 -81.5t-36.5 -123.5v-141z" />
<glyph unicode="&#xe4;" d="M61 176v141q0 104 56 183t147 114l285 91v190q0 79 -45.5 124.5t-124.5 45.5q-78 0 -124 -48t-46 -122v-41h-103v41q0 121 78.5 196.5t194.5 75.5t194 -75.5t78 -196.5v-895h-102v127q-7 -6 -20 -16t-50.5 -35t-71.5 -44.5t-76 -35.5t-73 -16q-82 0 -139.5 57t-57.5 139z M164 176q0 -35 29.5 -64.5t64.5 -29.5q48 0 121 42.5t121 85.5l49 42v346l-242 -76q-70 -27 -106.5 -81.5t-36.5 -123.5v-141zM184 1352q0 -25 17.5 -42.5t42.5 -17.5t43 17.5t18 42.5t-18 43t-43 18t-42.5 -18t-17.5 -43zM432 1352q0 -25 18.5 -42.5t43.5 -17.5t42 17.5 t17 42.5t-17 43t-42 18t-43.5 -18t-18.5 -43z" />
<glyph unicode="&#xe5;" d="M61 176v141q0 104 56 183t147 114l285 91v190q0 79 -45.5 124.5t-124.5 45.5q-78 0 -124 -48t-46 -122v-41h-103v41q0 121 78.5 196.5t194.5 75.5t194 -75.5t78 -196.5v-895h-102v127q-7 -6 -20 -16t-50.5 -35t-71.5 -44.5t-76 -35.5t-73 -16q-82 0 -139.5 57t-57.5 139z M164 176q0 -35 29.5 -64.5t64.5 -29.5q48 0 121 42.5t121 85.5l49 42v346l-242 -76q-70 -27 -106.5 -81.5t-36.5 -123.5v-141zM168 1454q0 82 57.5 139.5t139.5 57.5t139 -57.5t57 -139.5t-57 -139.5t-139 -57.5t-139.5 57.5t-57.5 139.5zM270 1454q0 -38 28.5 -66t66.5 -28 t66 28t28 66t-28 66t-66 28t-66.5 -28t-28.5 -66z" />
<glyph unicode="&#xe6;" horiz-adv-x="1210" d="M61 176v141q0 104 56 183t147 114l285 91v190q0 79 -45.5 124.5t-124.5 45.5q-78 0 -124 -48t-46 -122v-41h-103v41q0 121 78.5 196.5t194.5 75.5q69 0 127.5 -29t95.5 -81q37 52 94.5 81t124.5 29h45q114 0 193.5 -79t79.5 -193v-264h-488v-379q0 -70 49.5 -120 t120.5 -50h45q70 0 120 50t50 120v147h103v-147q0 -114 -79.5 -193t-193.5 -79h-45q-84 0 -151.5 44.5t-98.5 118.5l-22 -16q-7 -6 -20 -16t-50.5 -35t-71.5 -44.5t-76 -35.5t-73 -16q-82 0 -139.5 57t-57.5 139zM164 176q0 -35 29.5 -64.5t64.5 -29.5q48 0 121 42.5 t121 85.5l49 42v346l-242 -76q-70 -27 -106.5 -81.5t-36.5 -123.5v-141zM651 731h385v164q0 71 -50 120.5t-120 49.5h-45q-77 0 -123.5 -49t-46.5 -121v-164z" />
<glyph unicode="&#xe7;" horiz-adv-x="743" d="M102 252v643q0 114 79.5 193t193.5 79h45q114 0 193 -79t79 -193v-154h-102v154q0 71 -50 120.5t-120 49.5h-45q-71 0 -120.5 -49.5t-49.5 -120.5v-643q0 -70 49.5 -120t120.5 -50h45q70 0 120 50t50 120v147h102v-147q0 -113 -79 -192.5t-193 -79.5h-6l-8 -35 q81 -19 133.5 -85.5t52.5 -148.5q0 -100 -72 -168.5t-186 -68.5q-70 0 -168 61l72 72q61 -31 96 -31q68 0 111.5 39t43.5 96q0 53 -38 94t-95 41h-67l22 142q-91 20 -150 94t-59 170z" />
<glyph unicode="&#xe8;" d="M102 252v643q0 114 79.5 193t193.5 79h45q114 0 193 -79t79 -193v-264h-487v-379q0 -70 49.5 -120t120.5 -50h45q70 0 120 50t50 120v147h102v-147q0 -114 -79 -193t-193 -79h-45q-114 0 -193.5 79t-79.5 193zM205 731h385v164q0 71 -50 120.5t-120 49.5h-45 q-71 0 -120.5 -49.5t-49.5 -120.5v-164zM244 1567l207 -269h116l-207 269h-116z" />
<glyph unicode="&#xe9;" d="M102 252v643q0 114 79.5 193t193.5 79h45q114 0 193 -79t79 -193v-264h-487v-379q0 -70 49.5 -120t120.5 -50h45q70 0 120 50t50 120v147h102v-147q0 -114 -79 -193t-193 -79h-45q-114 0 -193.5 79t-79.5 193zM205 731h385v164q0 71 -50 120.5t-120 49.5h-45 q-71 0 -120.5 -49.5t-49.5 -120.5v-164zM285 1298l207 269h116l-205 -269h-118z" />
<glyph unicode="&#xea;" d="M102 252v643q0 114 79.5 193t193.5 79h45q114 0 193 -79t79 -193v-264h-487v-379q0 -70 49.5 -120t120.5 -50h45q70 0 120 50t50 120v147h102v-147q0 -114 -79 -193t-193 -79h-45q-114 0 -193.5 79t-79.5 193zM133 1305l254 303h19l253 -303h-102l-158 200h-6l-157 -200 h-103zM205 731h385v164q0 71 -50 120.5t-120 49.5h-45q-71 0 -120.5 -49.5t-49.5 -120.5v-164z" />
<glyph unicode="&#xeb;" d="M102 252v643q0 114 79.5 193t193.5 79h45q114 0 193 -79t79 -193v-264h-487v-379q0 -70 49.5 -120t120.5 -50h45q70 0 120 50t50 120v147h102v-147q0 -114 -79 -193t-193 -79h-45q-114 0 -193.5 79t-79.5 193zM205 731h385v164q0 71 -50 120.5t-120 49.5h-45 q-71 0 -120.5 -49.5t-49.5 -120.5v-164zM209 1352q0 -25 17 -42.5t42 -17.5t43.5 17.5t18.5 42.5t-18.5 43t-43.5 18t-42 -18t-17 -43zM457 1352q0 -25 18 -42.5t43 -17.5t42.5 17.5t17.5 42.5t-17.5 43t-42.5 18t-43 -18t-18 -43z" />
<glyph unicode="&#xec;" horiz-adv-x="423" d="M-6 1567l207 -269h116l-206 269h-117zM154 176v971h102v-971q0 -31 46 -62.5t89 -31.5v-102q-86 0 -161.5 58.5t-75.5 137.5z" />
<glyph unicode="&#xed;" horiz-adv-x="421" d="M68 1298l206 269h117l-205 -269h-118zM133 176v971h103v-971q0 -31 46 -62.5t89 -31.5v-102q-86 0 -162 58.5t-76 137.5z" />
<glyph unicode="&#xee;" horiz-adv-x="444" d="M-76 1305l254 303h19l254 -303h-103l-158 200h-6l-157 -200h-103zM135 176v971h103v-971q0 -31 46 -62.5t89 -31.5v-102q-86 0 -162 58.5t-76 137.5z" />
<glyph unicode="&#xef;" horiz-adv-x="403" d="M-2 1352q0 -25 17 -42.5t42 -17.5t43.5 17.5t18.5 42.5t-18.5 43t-43.5 18t-42 -18t-17 -43zM133 176v971h103v-971q0 -31 46 -62.5t89 -31.5v-102q-86 0 -162 58.5t-76 137.5zM246 1352q0 -25 18 -42.5t43 -17.5t42.5 17.5t17.5 42.5t-17.5 43t-42.5 18t-43 -18t-18 -43 z" />
<glyph unicode="&#xf0;" horiz-adv-x="743" d="M82 254q0 -113 79 -192.5t193 -79.5h45q114 0 193.5 79.5t79.5 192.5v780h102v101h-102v229q0 101 -72.5 173.5t-173.5 72.5h-45q-123 0 -209 -86t-86 -209v-160h102v160q0 70 61 131t132 61h43q56 0 100.5 -44t44.5 -99v-229h-172v-101h172v-207q0 3 -20 17t-62.5 29.5 t-87.5 15.5h-45q-114 0 -193 -80t-79 -193v-362zM184 254v362q0 70 50 120t120 50h45q70 0 120 -46t50 -113v-373q0 -70 -49.5 -120t-120.5 -50h-45q-70 0 -120 50t-50 120z" />
<glyph unicode="&#xf1;" horiz-adv-x="825" d="M123 0v1147h102v-127q7 6 20 16t50.5 35t71.5 44.5t76 35.5t73 16q82 0 139.5 -57t57.5 -139v-971h-103v971q0 41 -28.5 67.5t-65.5 26.5q-48 0 -121 -42t-121 -84l-49 -42v-897h-102zM145 1423l11 -94q51 55 116 55q46 0 138 -35.5t143 -35.5q73 0 125 65l-10 95 q-54 -58 -115 -58q-46 0 -138 36t-143 36q-76 0 -127 -64z" />
<glyph unicode="&#xf2;" horiz-adv-x="794" d="M102 252v643q0 114 79.5 193t193.5 79h45q114 0 193 -79t79 -193v-643q0 -113 -79 -192.5t-193 -79.5h-45q-114 0 -193.5 79.5t-79.5 192.5zM205 252q0 -70 49.5 -120t120.5 -50h45q70 0 120 50t50 120v643q0 71 -50 120.5t-120 49.5h-45q-71 0 -120.5 -49.5 t-49.5 -120.5v-643zM223 1567l207 -269h117l-207 269h-117z" />
<glyph unicode="&#xf3;" horiz-adv-x="794" d="M102 252v643q0 114 79.5 193t193.5 79h45q114 0 193 -79t79 -193v-643q0 -113 -79 -192.5t-193 -79.5h-45q-114 0 -193.5 79.5t-79.5 192.5zM205 252q0 -70 49.5 -120t120.5 -50h45q70 0 120 50t50 120v643q0 71 -50 120.5t-120 49.5h-45q-71 0 -120.5 -49.5 t-49.5 -120.5v-643zM305 1298l207 269h117l-205 -269h-119z" />
<glyph unicode="&#xf4;" horiz-adv-x="794" d="M102 252v643q0 114 79.5 193t193.5 79h45q114 0 193 -79t79 -193v-643q0 -113 -79 -192.5t-193 -79.5h-45q-114 0 -193.5 79.5t-79.5 192.5zM133 1305l254 303h19l253 -303h-102l-158 200h-6l-157 -200h-103zM205 252q0 -70 49.5 -120t120.5 -50h45q70 0 120 50t50 120 v643q0 71 -50 120.5t-120 49.5h-45q-71 0 -120.5 -49.5t-49.5 -120.5v-643z" />
<glyph unicode="&#xf5;" horiz-adv-x="794" d="M102 252v643q0 114 79.5 193t193.5 79h45q114 0 193 -79t79 -193v-643q0 -113 -79 -192.5t-193 -79.5h-45q-114 0 -193.5 79.5t-79.5 192.5zM131 1423l10 -94q51 55 117 55q46 0 138 -35.5t143 -35.5q73 0 125 65l-11 95q-54 -58 -114 -58q-46 0 -138 36t-143 36 q-76 0 -127 -64zM205 252q0 -70 49.5 -120t120.5 -50h45q70 0 120 50t50 120v643q0 71 -50 120.5t-120 49.5h-45q-71 0 -120.5 -49.5t-49.5 -120.5v-643z" />
<glyph unicode="&#xf6;" horiz-adv-x="794" d="M102 252v643q0 114 79.5 193t193.5 79h45q114 0 193 -79t79 -193v-643q0 -113 -79 -192.5t-193 -79.5h-45q-114 0 -193.5 79.5t-79.5 192.5zM205 252q0 -70 49.5 -120t120.5 -50h45q70 0 120 50t50 120v643q0 71 -50 120.5t-120 49.5h-45q-71 0 -120.5 -49.5 t-49.5 -120.5v-643zM209 1352q0 -25 17 -42.5t42 -17.5t43.5 17.5t18.5 42.5t-18.5 43t-43.5 18t-42 -18t-17 -43zM457 1352q0 -25 18 -42.5t43 -17.5t42.5 17.5t17.5 42.5t-17.5 43t-42.5 18t-43 -18t-18 -43z" />
<glyph unicode="&#xf7;" horiz-adv-x="880" d="M82 670v100h717v-100h-717zM379 477q0 -25 17 -42t42 -17t43.5 17.5t18.5 41.5q0 25 -18.5 43.5t-43.5 18.5q-24 0 -41.5 -18.5t-17.5 -43.5zM379 965q0 -25 17 -42.5t42 -17.5t43.5 17.5t18.5 42.5t-18.5 43t-43.5 18t-42 -18t-17 -43z" />
<glyph unicode="&#xf8;" horiz-adv-x="835" d="M102 -55l66 155q-45 67 -45 152v643q0 114 79 193t193 79h45q87 0 152 -47l39 90h102l-67 -161q47 -73 47 -154v-643q0 -113 -79.5 -192.5t-193.5 -79.5h-45q-87 0 -155 49l-35 -84h-103zM225 240l326 782q-46 43 -111 43h-45q-71 0 -120.5 -49.5t-49.5 -120.5v-655z M281 125q46 -43 114 -43h45q70 0 120 50t50 120v643q0 12 -2 18z" />
<glyph unicode="&#xf9;" horiz-adv-x="825" d="M113 176v971h102v-971q0 -41 28.5 -67.5t65.5 -26.5q48 0 121 42t122 84l48 42v897h102v-1147h-102v127q-7 -6 -20 -16t-50.5 -35t-71.5 -44.5t-76 -35.5t-73 -16q-82 0 -139 57t-57 139zM217 1567l207 -269h117l-207 269h-117z" />
<glyph unicode="&#xfa;" horiz-adv-x="825" d="M113 176v971h102v-971q0 -41 28.5 -67.5t65.5 -26.5q48 0 121 42t122 84l48 42v897h102v-1147h-102v127q-7 -6 -20 -16t-50.5 -35t-71.5 -44.5t-76 -35.5t-73 -16q-82 0 -139 57t-57 139zM367 1298l206 269h117l-205 -269h-118z" />
<glyph unicode="&#xfb;" horiz-adv-x="825" d="M113 176v971h102v-971q0 -41 28.5 -67.5t65.5 -26.5q48 0 121 42t122 84l48 42v897h102v-1147h-102v127q-7 -6 -20 -16t-50.5 -35t-71.5 -44.5t-76 -35.5t-73 -16q-82 0 -139 57t-57 139zM135 1305l254 303h19l254 -303h-103l-158 200h-6l-157 -200h-103z" />
<glyph unicode="&#xfc;" horiz-adv-x="825" d="M113 176v971h102v-971q0 -41 28.5 -67.5t65.5 -26.5q48 0 121 42t122 84l48 42v897h102v-1147h-102v127q-7 -6 -20 -16t-50.5 -35t-71.5 -44.5t-76 -35.5t-73 -16q-82 0 -139 57t-57 139zM223 1352q0 -25 17.5 -42.5t42.5 -17.5t43 17.5t18 42.5t-18 43t-43 18t-42.5 -18 t-17.5 -43zM471 1352q0 -25 18 -42.5t43 -17.5t42.5 17.5t17.5 42.5t-17.5 43t-42.5 18t-43 -18t-18 -43z" />
<glyph unicode="&#xfd;" horiz-adv-x="686" d="M20 1143h103l192 -1034q5 -27 21 -27h33l194 1059h103l-269 -1465h-102l55 304h-41q-32 0 -57.5 21t-30.5 48zM291 1298l207 269h116l-204 -269h-119z" />
<glyph unicode="&#xfe;" horiz-adv-x="815" d="M113 -295v1862h102v-547q7 6 20 16t50.5 35t71.5 44.5t76 35.5t73 16q82 0 139 -57t57 -139v-719q0 -113 -79 -192.5t-193 -79.5h-45q-98 0 -170 59v-334h-102zM215 252q0 -70 49.5 -120t120.5 -50h45q70 0 120 50t50 120v719q0 41 -28.5 67.5t-65.5 26.5q-48 0 -121 -42 t-121 -84l-49 -42v-645z" />
<glyph unicode="&#xff;" horiz-adv-x="686" d="M20 1143h103l192 -1034q5 -27 21 -27h33l194 1059h103l-269 -1465h-102l55 304h-41q-32 0 -57.5 21t-30.5 48zM160 1352q0 -25 17 -42.5t42 -17.5t43.5 17.5t18.5 42.5t-18.5 43t-43.5 18t-42 -18t-17 -43zM408 1352q0 -25 18 -42.5t43 -17.5t42 17.5t17 42.5t-17 43 t-42 18t-43 -18t-18 -43z" />
<glyph unicode="&#x152;" horiz-adv-x="1189" d="M113 274v1082q0 123 86 209t209 86h41q110 0 192 -72v59h508v-102h-406v-582h351v-102h-351v-750h406v-102h-508v49q-82 -69 -192 -69h-41q-123 0 -209 85.5t-86 208.5zM215 274q0 -79 56.5 -135.5t136.5 -56.5h41q79 0 135.5 56t56.5 136v1090q0 76 -57.5 130t-134.5 54 h-41q-80 0 -136.5 -56.5t-56.5 -135.5v-1082z" />
<glyph unicode="&#x153;" horiz-adv-x="1251" d="M102 252v643q0 114 79.5 193t193.5 79h45q67 0 125.5 -29.5t95.5 -82.5q37 53 95 82.5t126 29.5h45q114 0 193.5 -79t79.5 -193v-264h-488v-379q0 -70 50 -120t120 -50h45q71 0 120.5 50t49.5 120v147h103v-147q0 -114 -79.5 -193t-193.5 -79h-45q-68 0 -126 29.5 t-95 82.5q-37 -53 -95.5 -82.5t-125.5 -29.5h-45q-114 0 -193.5 79.5t-79.5 192.5zM205 252q0 -70 49.5 -120t120.5 -50h45q69 0 119.5 47.5t50.5 114.5v651q0 71 -50 120.5t-120 49.5h-45q-71 0 -120.5 -49.5t-49.5 -120.5v-643zM692 731h385v164q0 71 -49.5 120.5 t-120.5 49.5h-45q-70 0 -120 -49.5t-50 -120.5v-164z" />
<glyph unicode="&#x178;" horiz-adv-x="868" d="M20 1638l293 -1118q3 -23 22.5 -42t47.5 -25v-453h102v451q27 6 48 26.5t26 42.5l289 1118h-103l-280 -1058q-7 -27 -21 -27h-16q-7 0 -12 6.5t-6 13.5l-2 7l-285 1058h-103zM244 1761q0 -25 17 -42t42 -17t43.5 17.5t18.5 41.5q0 25 -18.5 43.5t-43.5 18.5 q-24 0 -41.5 -18.5t-17.5 -43.5zM492 1761q0 -25 18 -42t43 -17t42 17t17 42t-17.5 43.5t-41.5 18.5q-25 0 -43 -18.5t-18 -43.5z" />
<glyph unicode="&#x2c6;" horiz-adv-x="634" d="M63 1305l254 303h19l254 -303h-103l-157 200h-6l-158 -200h-103z" />
<glyph unicode="&#x2dc;" horiz-adv-x="628" d="M49 1423l10 -94q51 55 117 55q46 0 138 -35.5t143 -35.5q73 0 125 65l-11 95q-54 -58 -114 -58q-46 0 -138 36t-143 36q-76 0 -127 -64z" />
<glyph unicode="&#x2000;" horiz-adv-x="1040" />
<glyph unicode="&#x2001;" horiz-adv-x="2081" />
<glyph unicode="&#x2002;" horiz-adv-x="1040" />
<glyph unicode="&#x2003;" horiz-adv-x="2081" />
<glyph unicode="&#x2004;" horiz-adv-x="693" />
<glyph unicode="&#x2005;" horiz-adv-x="520" />
<glyph unicode="&#x2006;" horiz-adv-x="346" />
<glyph unicode="&#x2007;" horiz-adv-x="346" />
<glyph unicode="&#x2008;" horiz-adv-x="260" />
<glyph unicode="&#x2009;" horiz-adv-x="416" />
<glyph unicode="&#x200a;" horiz-adv-x="115" />
<glyph unicode="&#x2010;" horiz-adv-x="614" d="M82 670v100h450v-100h-450z" />
<glyph unicode="&#x2011;" horiz-adv-x="614" d="M82 670v100h450v-100h-450z" />
<glyph unicode="&#x2012;" horiz-adv-x="614" d="M82 670v100h450v-100h-450z" />
<glyph unicode="&#x2013;" horiz-adv-x="589" d="M0 670v100h590v-100h-590z" />
<glyph unicode="&#x2014;" horiz-adv-x="1159" d="M0 670v100h1159v-100h-1159z" />
<glyph unicode="&#x2018;" horiz-adv-x="382" d="M133 1405q0 38 14 78l60 153l90 -32l-59 -156q-7 -24 -7 -45q0 -40 20 -64t71 -43l-33 -90q-84 30 -120 78.5t-36 120.5z" />
<glyph unicode="&#x2019;" horiz-adv-x="382" d="M61 1554l33 91q84 -30 120 -78.5t36 -120.5q0 -38 -14 -78l-60 -154l-90 33l59 156q7 25 7 45q0 40 -20 63.5t-71 42.5z" />
<glyph unicode="&#x201a;" horiz-adv-x="382" d="M61 16l33 90q84 -30 120 -78t36 -120q0 -38 -14 -78l-60 -154l-90 33l59 156q7 25 7 45q0 40 -20 63.5t-71 42.5z" />
<glyph unicode="&#x201c;" horiz-adv-x="587" d="M133 1405q0 38 14 78l60 153l90 -32l-59 -156q-7 -24 -7 -45q0 -40 20 -64t71 -43l-33 -90q-84 30 -120 78.5t-36 120.5zM338 1405q0 38 14 78l60 153l90 -32l-60 -156q-6 -21 -6 -45q0 -40 20 -64t70 -43l-32 -90q-84 30 -120 78.5t-36 120.5z" />
<glyph unicode="&#x201d;" horiz-adv-x="587" d="M61 1554l33 91q84 -30 120 -78.5t36 -120.5q0 -38 -14 -78l-60 -154l-90 33l59 156q7 25 7 45q0 40 -20 63.5t-71 42.5zM266 1554l33 91q84 -30 120 -78.5t36 -120.5q0 -35 -15 -78l-59 -154l-90 33l59 156q6 21 6 45q0 40 -20 63.5t-70 42.5z" />
<glyph unicode="&#x201e;" horiz-adv-x="587" d="M61 16l33 90q84 -30 120 -78t36 -120q0 -38 -14 -78l-60 -154l-90 33l59 156q7 25 7 45q0 40 -20 63.5t-71 42.5zM266 16l33 90q84 -30 120 -78t36 -120q0 -35 -15 -78l-59 -154l-90 33l59 156q6 21 6 45q0 40 -20 63.5t-70 42.5z" />
<glyph unicode="&#x2022;" horiz-adv-x="479" d="M133 551q0 -47 35 -82t82 -35t82 35t35 82t-35 82t-82 35t-82 -35t-35 -82z" />
<glyph unicode="&#x2026;" horiz-adv-x="1062" d="M164 59q0 -25 17 -42t42 -17t43.5 17.5t18.5 41.5q0 25 -18.5 43.5t-43.5 18.5q-24 0 -41.5 -18.5t-17.5 -43.5zM471 59q0 -25 17 -42t42 -17t43.5 17.5t18.5 41.5q0 25 -18.5 43.5t-43.5 18.5q-24 0 -41.5 -18.5t-17.5 -43.5zM778 59q0 -25 17.5 -42t42.5 -17t43 17 t18 42t-18 43.5t-43 18.5t-42.5 -18.5t-17.5 -43.5z" />
<glyph unicode="&#x202f;" horiz-adv-x="416" />
<glyph unicode="&#x2039;" horiz-adv-x="643" d="M61 489l412 302l68 -70l-324 -232l324 -231l-68 -70z" />
<glyph unicode="&#x203a;" horiz-adv-x="643" d="M102 258l68 -70l412 301l-412 302l-68 -70l324 -232z" />
<glyph unicode="&#x205f;" horiz-adv-x="520" />
<glyph unicode="&#x20ac;" horiz-adv-x="917" d="M72 676v102h112v74h-112v102h112v340q0 123 86 209t209 86h41q123 0 209 -86t86 -209v-258h-102v258q0 80 -56.5 136.5t-136.5 56.5h-41q-79 0 -135.5 -56.5t-56.5 -136.5v-340h350v-102h-350v-74h350v-102h-350v-402q0 -80 56.5 -136t135.5 -56h41q79 0 134 56t55 136 v324h106v-324q0 -123 -86 -208.5t-209 -85.5h-41q-123 0 -209 85.5t-86 208.5v402h-112z" />
<glyph unicode="&#x2122;" horiz-adv-x="1073" d="M92 1556h129v-737h80v737h129v82h-338v-82zM471 819h82v737h41l61 -716h140l63 716h41v-737h82v819h-201l-55 -716l-53 716h-201v-819z" />
<glyph unicode="&#x25fc;" horiz-adv-x="1146" d="M0 0v1147h1147v-1147h-1147z" />
</font>
</defs>
</svg>
